<svg version="1" xmlns="http://www.w3.org/2000/svg" width="682.667" height="682.667" viewBox="0 0 512.000000 512.000000"><path d="M225.3 37.9c-16.1 16.3-30.2 30.7-31.4 32.1-14.3 16.8-26.3 37.5-33.1 57-2.3 6.8-6.4 22.1-7.2 27.5-.4 2.2-.9 5.2-1.2 6.6l-.5 2.7-7.7-3c-11.1-4.4-27.4-8.9-36.7-10.2-2.3-.4-5.2-.9-6.5-1.2-1.4-.3-15.7-.7-31.9-.9l-29.3-.4.5 29.2c.5 28.6 1.1 35 4.3 49.2 5.6 24.8 17.8 50.3 33.5 70.1l4.9 6.1-6.8 2.8c-22.4 9.1-35.9 18.5-59 41.3L-.5 364.3l18.1 17.6c9.9 9.7 21.7 20.2 26.1 23.4 38.1 27.3 86.6 34.5 130.8 19.5 22.6-7.7 38.5-18 59.8-38.8l11.7-11.5.1 19.5c.1 10.7.2 38.4.3 61.5.2 46.1.1 45.6 6.2 48.1 2.9 1.2 3.9 1.2 6.8 0 1.9-.8 4-2.5 4.7-3.8 1-1.8 1.4-15.8 1.6-63.2.1-33.5.4-61 .6-61.2.2-.2 5.7 4.8 12.2 11.2 16.4 16 29 25.1 45.5 32.7 41.9 19.3 92.9 16.8 132.5-6.5 12.4-7.3 21-14.4 38.5-31.7l17.1-16.8-13.5-13.5c-14.2-14.3-24.8-23.9-30.6-27.8-1.9-1.3-3.7-2.7-4-3-1.4-1.5-22.1-12.3-25.9-13.5-1.3-.4-4-1.4-5.8-2.2l-3.5-1.4 2.8-3.7c1.6-2 3.3-4.2 4-4.9 4.4-4.5 16-24.5 22.3-38.3 2.3-5.1 7.8-22 8.5-26.2.3-1.5.7-3.1 1-3.6.2-.4 1.2-5.7 2.1-11.7 2.2-13.8 3.1-65.1 1.2-65.8-1.7-.6-52.6 0-56.2.6-1.6.3-5.5.9-8.5 1.2-7.9 1-26.3 5.9-35.1 9.3-11.9 4.8-11.1 5-12.3-3.5-1.2-8-6.5-27.6-9.6-34.8-7.2-17.1-16.2-32.7-25.8-45-6.5-8.2-66.2-68.6-67.7-68.4-.5.1-14.2 13.5-30.2 29.8z"/></svg>